<?xml version="1.0" ?><!DOCTYPE svg  PUBLIC '-//W3C//DTD SVG 1.1//EN'  'http://www.w3.org/Graphics/SVG/1.1/DTD/svg11.dtd'><svg enable-background="new 0 0 72 72" id="Layer_1" version="1.1" viewBox="0 0 72 72" xml:space="preserve" xmlns="http://www.w3.org/2000/svg" xmlns:xlink="http://www.w3.org/1999/xlink"><g><circle cx="36" cy="21" fill="#2895ff" r="8.8"/><circle cx="55.5" cy="21.6" fill="#2895ff" r="6.1"/><circle cx="16.5" cy="21.6" fill="#2895ff" r="6.1"/><path d="M24.3,36.1c0.7-0.3,0.7-1.3,0-1.7c-2.3-1.3-5-2-7.8-2c-8.2,0-15,6.1-16,14.1c-0.1,1.1,0.7,2,1.8,2l9.2,0   c0.4,0,0.7-0.2,0.9-0.5C14.9,42.8,19.1,38.6,24.3,36.1z" fill="#2895ff"/><path d="M71.5,46.4c-1-7.9-7.8-14.1-16-14.1c-2.8,0-5.5,0.7-7.8,2c-0.7,0.4-0.7,1.4,0,1.7   c5.1,2.5,9.3,6.7,11.9,11.8c0.2,0.3,0.5,0.5,0.9,0.5l9.2,0C70.8,48.5,71.6,47.5,71.5,46.4z" fill="#2895ff"/><path d="M59.2,57c-1.1-9-7.4-16.5-15.8-19.3c-0.7-0.2-1.5-0.1-2,0.5l-4,4c-0.8,0.8-2,0.8-2.7,0l-4-4   c-0.5-0.5-1.3-0.7-2-0.5C20.2,40.5,13.9,48,12.8,57c-0.2,1.5,1,2.9,2.5,2.9h41.2C58.1,59.9,59.3,58.5,59.2,57z" fill="#2895ff"/></g></svg>
