<?xml version="1.0" encoding="utf-8"?>
<!-- Generator: Adobe Illustrator 21.0.2, SVG Export Plug-In . SVG Version: 6.00 Build 0)  -->
<svg version="1.1" id="Layer_1" xmlns="http://www.w3.org/2000/svg" xmlns:xlink="http://www.w3.org/1999/xlink" x="0px" y="0px"
	 viewBox="0 0 12 17" style="enable-background:new 0 0 12 17;" xml:space="preserve">
<style type="text/css">
	.st0{fill:none;stroke:#B2B2B2;}
	.st1{fill:#B2B2B2;}
</style>
<path class="st0" d="M6,0.5c3.1,0.1,5.6,2.8,5.5,5.9c0,3.3-5.3,10.1-5.5,10.1c-0.3,0-5.5-6.8-5.5-10.1C0.4,3.2,2.9,0.6,6,0.5z"/>
<g>
	<path class="st1" d="M6,4.5c0.8,0,1.5,0.7,1.5,1.5S6.8,7.5,6,7.5S4.5,6.8,4.5,6S5.2,4.5,6,4.5 M6,3.5C4.6,3.5,3.5,4.6,3.5,6
		S4.6,8.5,6,8.5S8.5,7.3,8.5,6S7.4,3.5,6,3.5L6,3.5z"/>
</g>
</svg>
