<?xml version="1.0" ?><!DOCTYPE svg  PUBLIC '-//W3C//DTD SVG 1.1//EN'  'http://www.w3.org/Graphics/SVG/1.1/DTD/svg11.dtd'><svg height="512px" style="shape-rendering:geometricPrecision; text-rendering:geometricPrecision; image-rendering:optimizeQuality; fill-rule:evenodd; clip-rule:evenodd" version="1.1" viewBox="0 0 512 512" width="512px" xml:space="preserve" xmlns="http://www.w3.org/2000/svg" xmlns:xlink="http://www.w3.org/1999/xlink"><defs><style type="text/css">
   <![CDATA[
    .fil0 {fill:#2895ff} .fil1 {fill:#2895ff}
   ]]>
  </style></defs><g id="Layer_x0020_1"><path class="fil0" d="M79997 937l352004 0c43484,0 79061,35577 79061,79061l0 352004c0,43484 -35577,79061 -79061,79061l-352004 0c-43484,0 -79061,-35577 -79061,-79061l0 -352004c0,-43484 35577,-79061 79061,-79061z"/><path class="fil1" d="M252 17c135,0 244,109 244,244 0,135 -109,244 -244,244 -135,0 -244,-109 -244,-244 0,-135 109,-244 244,-244zm0 262c45,0 83,43 89,100l-178 0c6,-56 44,-100 89,-100zm0 -135c32,0 58,26 58,58 0,32 -26,58 -58,58 -32,0 -58,-26 -58,-58 0,-32 26,-58 58,-58zm0 -105c123,0 222,100 222,222 0,123 -100,222 -222,222 -123,0 -222,-100 -222,-222 0,-123 100,-222 222,-222z"/></g></svg>
