<?xml version="1.0" encoding="utf-8"?>
<!-- Generator: Adobe Illustrator 21.0.2, SVG Export Plug-In . SVG Version: 6.00 Build 0)  -->
<svg version="1.1" id="Layer_1" xmlns="http://www.w3.org/2000/svg" xmlns:xlink="http://www.w3.org/1999/xlink" x="0px" y="0px"
	 viewBox="0 0 17 17" style="enable-background:new 0 0 17 17;" xml:space="preserve">
<style type="text/css">
	.st0{fill:#6D6E70;}
</style>
<path class="st0" d="M13.1,17c0.8,0,1.6-0.3,2.2-0.9c0,0,0,0,0,0c0.2-0.2,1-1,1.2-1.2c0.7-0.6,0.8-1.7,0.1-2.4c0,0-0.1-0.1-0.1-0.1
	l-2.1-2.1C14,9.9,13.5,9.7,13,9.7c-0.5,0-0.9,0.2-1.3,0.6l-1.3,1.3c-0.1-0.1-0.2-0.1-0.3-0.2c-0.1-0.1-0.3-0.1-0.4-0.2
	c-1.2-0.8-2.3-1.8-3.2-2.9C6.1,7.7,5.8,7.1,5.5,6.5c0.3-0.3,0.6-0.6,0.9-0.9c0.1-0.1,0.2-0.2,0.3-0.3c0.7-0.6,0.8-1.7,0.2-2.4
	C6.9,2.8,6.8,2.7,6.8,2.7l-1.1-1C5.6,1.5,5.5,1.4,5.3,1.3C5.1,1,4.9,0.8,4.6,0.6C4.3,0.2,3.9,0,3.4,0C2.9,0,2.5,0.2,2.1,0.6L0.8,1.9
	C0.3,2.3,0,3,0,3.6c0,1,0.1,1.9,0.5,2.8c0.7,1.8,1.7,3.4,2.9,4.9c1.6,2,3.7,3.6,6,4.7c1.1,0.5,2.2,0.9,3.4,1C12.9,17,13,17,13.1,17
	L13.1,17L13.1,17z M4.1,10.8C2.9,9.4,2,7.8,1.3,6.1C1,5.4,0.8,4.5,0.9,3.7c0-0.5,0.2-0.9,0.6-1.2l1.3-1.3C2.9,1,3.1,0.9,3.4,0.9
	C3.6,0.9,3.9,1,4,1.2c0.2,0.2,0.5,0.4,0.7,0.7C4.8,2,5,2.1,5.1,2.2l1.1,1c0.4,0.3,0.4,0.8,0.2,1.1c0,0.1-0.1,0.1-0.2,0.2
	C6,4.7,5.9,4.8,5.8,4.9c-0.3,0.3-0.6,0.6-1,0.9l0,0C4.6,6.1,4.5,6.4,4.6,6.7c0,0,0,0,0,0c0.3,0.7,0.7,1.4,1.2,2
	c1,1.2,2.1,2.3,3.4,3.1c0.2,0.1,0.3,0.2,0.5,0.3c0.1,0.1,0.3,0.1,0.4,0.2l0,0c0.1,0.1,0.2,0.1,0.3,0.1c0.2,0,0.4-0.1,0.5-0.2
	l1.3-1.3c0.2-0.2,0.4-0.3,0.6-0.3c0.2,0,0.5,0.1,0.6,0.3l2.1,2.1c0.4,0.3,0.4,0.8,0.1,1.2c-0.8,1-1.1,1.1-1.3,1.4
	c-0.4,0.4-0.9,0.7-1.5,0.6c-0.1,0-0.1,0-0.2,0c-1.1-0.1-2.1-0.4-3-0.9C7.6,14.2,5.7,12.6,4.1,10.8L4.1,10.8L4.1,10.8z"/>
</svg>
