<?xml version="1.0" encoding="utf-8"?>
<!-- Generator: Adobe Illustrator 21.0.2, SVG Export Plug-In . SVG Version: 6.00 Build 0)  -->
<svg version="1.1" id="icon" xmlns="http://www.w3.org/2000/svg" xmlns:xlink="http://www.w3.org/1999/xlink" x="0px" y="0px"
	 viewBox="0 0 19 15.1" style="enable-background:new 0 0 19 15.1;" xml:space="preserve">
<style type="text/css">
	.st0{fill:none;stroke:#6D6E70;}
	.st1{fill:none;stroke:#6D6E70;stroke-width:0.9849;}
	.st2{fill:none;enable-background:new    ;}
</style>
<path id="Rounded_Rectangle_4" class="st0" d="M2.5,2.6h14c1.1,0,2,0.9,2,2v8c0,1.1-0.9,2-2,2h-14c-1.1,0-2-0.9-2-2v-8
	C0.5,3.5,1.4,2.6,2.5,2.6z"/>
<path class="st0" d="M11.5,2.4v-1c0.1-0.5-0.3-0.9-0.8-1c-0.1,0-0.1,0-0.2,0h-2C8,0.4,7.6,0.7,7.5,1.2c0,0.1,0,0.2,0,0.3v1"/>
<path class="st1" d="M18.2,3.6c0,2.8-3.9,5-8.7,5s-8.7-2.2-8.7-5"/>
<image style="overflow:visible;" width="2" height="2" xlink:href="507EEAB170B0F63A.jpg"  transform="matrix(1.495 0 0 1.495 8.005 7.065)">
</image>
<path class="st2" d="z"/>
</svg>
